<?xml version="1.0" standalone="no"?>
<!DOCTYPE svg PUBLIC "-//W3C//DTD SVG 20010904//EN"
 "http://www.w3.org/TR/2001/REC-SVG-20010904/DTD/svg10.dtd">
<svg version="1.0" xmlns="http://www.w3.org/2000/svg"
 width="800.000000pt" height="800.000000pt" viewBox="0 0 800.000000 800.000000"
 preserveAspectRatio="xMidYMid meet">

<g transform="translate(0.000000,800.000000) scale(0.100000,-0.100000)"
fill="#000000" stroke="none">
<path d="M3580 7979 c-58 -4 -172 -19 -255 -33 -998 -171 -1890 -717 -2511
-1536 -444 -585 -716 -1277 -796 -2020 -16 -149 -16 -622 0 -770 111 -1021
567 -1916 1331 -2607 462 -418 1059 -733 1685 -888 373 -92 648 -121 1066
-112 347 8 558 36 880 117 683 171 1306 520 1803 1008 689 676 1102 1531 1199
2482 16 161 16 599 0 760 -49 486 -180 942 -393 1375 -451 919 -1244 1643
-2184 1993 -300 111 -680 202 -974 232 -116 11 -690 11 -851 -1z m728 -389
c81 -6 213 -22 294 -35 1400 -236 2539 -1287 2891 -2670 77 -300 107 -549 107
-880 0 -466 -69 -843 -232 -1280 -172 -456 -458 -902 -804 -1250 -555 -557
-1247 -913 -2004 -1029 -978 -150 -1955 96 -2735 688 -141 107 -216 175 -390
350 -501 506 -830 1124 -971 1824 -193 964 33 1991 615 2800 289 403 694 770
1116 1012 429 247 990 430 1440 469 145 12 503 13 673 1z"/>
<path d="M3888 6719 c-57 -61 -105 -115 -107 -121 -2 -6 57 -71 130 -144 91
-91 128 -134 115 -134 -61 0 -322 -36 -448 -61 -665 -134 -1256 -580 -1562
-1178 -279 -545 -328 -1186 -135 -1766 247 -743 845 -1295 1615 -1489 171 -43
302 -58 514 -58 376 0 604 45 927 182 186 79 392 205 555 339 92 76 283 276
356 373 189 251 313 517 410 873 l27 100 0 395 c0 446 3 426 -91 707 -92 278
-212 503 -383 718 -68 86 -307 325 -344 344 -27 14 -29 13 -73 -30 -50 -48
-274 -331 -274 -346 0 -4 48 -56 106 -113 175 -174 283 -320 379 -509 65 -131
140 -364 155 -486 16 -127 16 -464 1 -575 -26 -180 -154 -497 -269 -667 -291
-428 -713 -695 -1216 -769 -164 -24 -451 -15 -601 19 -545 124 -980 469 -1219
967 -122 254 -159 426 -159 745 -1 235 17 366 70 525 176 529 582 948 1088
1123 172 59 301 83 560 102 l69 5 -144 -145 -145 -145 126 -126 125 -125 91
93 c240 248 673 714 673 726 0 13 -425 425 -722 700 -37 34 -74 62 -82 62 -8
0 -61 -50 -118 -111z"/>
</g>
</svg>
